<?xml version="1.0" encoding="UTF-8"?>
<svg id="Layer_1" data-name="Layer 1" xmlns="http://www.w3.org/2000/svg" viewBox="0 0 16 16">
  <path d="m13.03,4.9l-3.24-3.24c-.09-.09-.2-.14-.33-.14h-5.09c-.37,0-.72.15-.98.41-.26.26-.41.61-.41.98v10.18c0,.37.15.72.41.98.26.26.61.41.98.41h7.4c.37,0,.72-.15.98-.41.26-.26.41-.61.41-.98v-7.87c0-.12-.05-.24-.14-.33h0Zm-3.1-1.8l1.66,1.66h-1.2c-.12,0-.24-.05-.33-.14-.09-.09-.14-.2-.14-.33v-1.2Zm1.85,10.45h-7.4c-.12,0-.24-.05-.33-.14-.09-.09-.14-.2-.14-.33V2.91c0-.12.05-.24.14-.33.09-.09.2-.14.33-.14h4.63v1.85c0,.37.15.72.41.98.26.26.61.41.98.41h1.85v7.4c0,.12-.05.24-.14.33-.09.09-.2.14-.33.14h0Z"/>
  <g>
    <path d="m5.23,10.35c0,.2-.09.22-.17.22-.09,0-.17-.05-.27-.15l-.06-.06-.35.39.04.05c.17.2.38.29.64.29.22,0,.39-.07.52-.19.13-.13.19-.31.19-.53v-1.25h-.55v1.23Z"/>
    <path d="m6.86,9.85c-.32-.08-.33-.11-.33-.17,0-.05.06-.08.16-.08.13,0,.26.05.42.16l.06.04.29-.42-.05-.04c-.2-.16-.44-.24-.71-.24-.41,0-.7.25-.7.62,0,.42.29.53.65.62.3.08.3.12.3.16,0,.09-.14.09-.18.09-.17,0-.32-.06-.49-.2l-.06-.05-.33.39.05.05c.22.2.51.31.81.31.44,0,.73-.25.73-.64s-.3-.53-.62-.61Z"/>
    <path d="m8.62,9.1c-.58,0-1.03.44-1.03,1h0c0,.57.44,1,1.02,1s1.03-.44,1.03-1.01-.44-1-1.02-1Zm.46,1h0c0,.28-.2.49-.46.49s-.47-.21-.47-.49.2-.48.46-.48.47.21.47.49Z"/>
    <polygon points="11.05 9.13 11.05 10.08 10.34 9.16 10.32 9.13 9.84 9.13 9.84 11.07 10.38 11.07 10.38 10.08 11.14 11.07 11.59 11.07 11.59 9.13 11.05 9.13"/>
  </g>
</svg>