<svg xmlns="http://www.w3.org/2000/svg" viewBox="0 0 16 16">
  <g>
    <path d="M14.16,12.8,11,9.68l.06-.09a5.32,5.32,0,1,0-4.29,2.19,5.48,5.48,0,0,0,2.25-.51l.08,0,3.3,3.29a1.21,1.21,0,0,0,1.72,0A1.23,1.23,0,0,0,14.16,12.8ZM6.81,11.28a4.83,4.83,0,1,1,4.83-4.82A4.84,4.84,0,0,1,6.81,11.28Zm7,2.88a.67.67,0,0,1-.5.21.74.74,0,0,1-.51-.2L9.6,11l.13-.08a6.36,6.36,0,0,0,.89-.74l.09-.09.09.08,3,3a.69.69,0,0,1,.21.5A.68.68,0,0,1,13.8,14.16Z"/>
    <path d="M9.55,3.72A3.88,3.88,0,0,0,2.93,6.45,3.88,3.88,0,1,0,9.55,3.72ZM6.81,9.83a3.38,3.38,0,1,1,3.38-3.38A3.38,3.38,0,0,1,6.81,9.83Z"/>
    <path d="M7.27,5.81a.87.87,0,0,0-.63-.12.84.84,0,0,0-.64,1,.83.83,0,0,0,.81.66l.18,0a.83.83,0,0,0,.64-1A.87.87,0,0,0,7.27,5.81Zm0,1a.57.57,0,0,1-.34.24.54.54,0,0,1-.64-.42A.56.56,0,0,1,6.7,6a.54.54,0,0,1,.56.83Z"/>
    <path d="M8.39,5.65l-.15,0a1.07,1.07,0,0,0-.15-.22l.08-.12A.27.27,0,0,0,8.09,5l-.4-.26a.27.27,0,0,0-.37.08l-.08.12a1.26,1.26,0,0,0-.27,0l0-.15a.26.26,0,0,0-.31-.2l-.47.1A.26.26,0,0,0,6,4.93l0,.14-.22.15-.12-.07a.27.27,0,0,0-.37.07L5,5.63A.27.27,0,0,0,5.09,6l.12.08a2,2,0,0,0,0,.26L5,6.38a.26.26,0,0,0-.2.31l.1.47a.26.26,0,0,0,.31.2l.15,0,.15.22-.08.13A.26.26,0,0,0,5.53,8l.4.27a.27.27,0,0,0,.37-.08l.08-.13.27.05,0,.15a.27.27,0,0,0,.26.2H7l.46-.1a.28.28,0,0,0,.21-.32l0-.15a1.07,1.07,0,0,0,.22-.15L8,7.86a.26.26,0,0,0,.37-.08l.26-.4A.27.27,0,0,0,8.53,7L8.4,6.93a1.32,1.32,0,0,0,0-.26l.15,0a.25.25,0,0,0,.2-.32l-.1-.46A.26.26,0,0,0,8.39,5.65Zm-.1.75a.16.16,0,0,0-.12.15A1.76,1.76,0,0,1,8.1,7a.14.14,0,0,0,.06.18l.19.12-.23.35-.19-.12a.14.14,0,0,0-.18,0,1.56,1.56,0,0,1-.34.23.15.15,0,0,0-.08.16l0,.23L7,8.21,6.93,8a.15.15,0,0,0-.14-.11,1.42,1.42,0,0,1-.41-.08h0a.15.15,0,0,0-.12.07L6.08,8l-.35-.22.13-.19a.15.15,0,0,0,0-.19,1.13,1.13,0,0,1-.23-.34A.16.16,0,0,0,5.44,7l-.23.05-.09-.4.23,0a.15.15,0,0,0,.12-.14,1.41,1.41,0,0,1,.07-.41.14.14,0,0,0-.06-.17l-.19-.13.23-.35.19.13a.14.14,0,0,0,.19,0,1,1,0,0,1,.33-.22.16.16,0,0,0,.08-.17l0-.22.4-.09,0,.22a.15.15,0,0,0,.14.12,1.15,1.15,0,0,1,.41.08.14.14,0,0,0,.17-.07L7.56,5l.35.23-.13.19a.15.15,0,0,0,0,.18A1.08,1.08,0,0,1,8,5.92.16.16,0,0,0,8.2,6l.22,0,.09.4Z"/>
  </g>
</svg>