<svg width="480" height="193" viewBox="0 0 480 193" fill="none" xmlns="http://www.w3.org/2000/svg">
<path opacity="0.8" d="M143 149.454H114.992V193H92.1017V149.454H0V129.294L90.4859 0H114.992V128.219H143V149.454ZM92.1017 67.7382C92.1017 63.0789 92.1017 58.8677 92.1017 55.1045C92.2812 51.162 92.4608 47.4884 92.6403 44.0836C92.8198 40.6788 92.9096 37.4531 92.9096 34.4067C93.0891 31.1811 93.2687 28.1346 93.4482 25.2674H92.371C90.9347 28.6722 89.1394 32.3459 86.9849 36.2883C84.8305 40.2307 82.7659 43.546 80.791 46.234L23.1601 128.219H92.1017V67.7382Z" fill="#9AC2E7"/>
<circle cx="240.528" cy="92.5284" r="72.5284" fill="#D9E8F6"/>
<circle r="5.78125" transform="matrix(1 0 0 -1 150.781 43.9431)" fill="#FC9C0C"/>
<circle r="13.1392" transform="matrix(1 0 0 -1 312.656 146.954)" fill="#9AC2E7"/>
<circle r="4.73011" transform="matrix(1 0 0 -1 304.247 170.08)" fill="#9AC2E7"/>
<circle r="4.73011" transform="matrix(1 0 0 -1 178.111 155.364)" fill="#9AC2E7"/>
<circle r="4.73011" transform="matrix(1 0 0 -1 291.634 22.9204)" fill="#EB4971"/>
<circle r="13.1392" transform="matrix(1 0 0 -1 312.656 36.5852)" fill="#9AC2E7" fill-opacity="0.7"/>
<path d="M296 93C296 108.228 290.554 121.239 279.663 132.032C268.921 142.677 255.867 148 240.5 148C225.133 148 212.004 142.677 201.113 132.032C190.371 121.239 185 108.228 185 93C185 77.7715 190.371 64.8347 201.113 54.1895C212.004 43.3965 225.133 38 240.5 38C251.839 38 262.208 41.1788 271.607 47.5363L278.321 40.8831C279.067 40.1438 279.887 39.7742 280.782 39.7742C281.827 39.7742 282.722 40.1438 283.468 40.8831L285.929 43.3226C286.675 44.0618 287.048 44.9489 287.048 45.9839C287.048 46.871 286.675 47.6841 285.929 48.4234L240.948 93H254.823C254.823 96.9919 253.405 100.392 250.571 103.202C247.736 105.863 244.379 107.194 240.5 107.194C236.621 107.194 233.264 105.863 230.429 103.202C227.595 100.392 226.177 96.9919 226.177 93C226.177 89.1559 227.52 85.9032 230.206 83.2419C232.891 80.4328 236.173 78.9543 240.052 78.8065L247.661 71.2661C245.423 70.379 243.036 69.9355 240.5 69.9355C234.085 69.9355 228.565 72.2272 223.94 76.8105C219.464 81.246 217.226 86.6425 217.226 93C217.226 99.3575 219.464 104.828 223.94 109.411C228.565 113.847 234.085 116.065 240.5 116.065C246.915 116.065 252.361 113.847 256.837 109.411C261.462 104.828 263.774 99.3575 263.774 93H274.516C274.516 101.132 271.905 108.302 266.683 114.512C261.462 120.722 254.897 124.566 246.99 126.044C245.2 124.122 243.036 123.161 240.5 123.161C237.964 123.161 235.8 124.122 234.01 126.044C227.296 124.714 221.478 121.609 216.554 116.73C211.631 111.851 208.498 106.085 207.155 99.4315C209.095 97.6573 210.065 95.5134 210.065 93C210.065 90.4866 209.095 88.3427 207.155 86.5685C208.647 78.7325 212.526 72.2272 218.792 67.0524C225.058 61.8777 232.294 59.2903 240.5 59.2903C245.722 59.2903 250.869 60.547 255.942 63.0605L263.774 55.2984C256.613 50.8629 248.855 48.6452 240.5 48.6452C229.46 48.6452 219.762 52.1935 211.407 59.2903C203.202 66.2392 198.204 75.0363 196.413 85.6815C193.579 87.4556 192.161 89.8952 192.161 93C192.161 96.1048 193.579 98.5444 196.413 100.319C198.054 109.633 202.232 117.617 208.946 124.27C215.659 130.923 223.716 135.063 233.115 136.69C234.905 139.499 237.367 140.903 240.5 140.903C243.633 140.903 246.095 139.499 247.885 136.69C258.627 134.915 267.504 129.962 274.516 121.831C281.677 113.551 285.258 103.941 285.258 93H296Z" fill="#9AC2E7"/>
<path opacity="0.8" d="M480 149.454H451.992V193H429.102V149.454H337V129.294L427.486 0H451.992V128.219H480V149.454ZM429.102 67.7382C429.102 63.0789 429.102 58.8677 429.102 55.1045C429.281 51.162 429.461 47.4884 429.64 44.0836C429.82 40.6787 429.91 37.4531 429.91 34.4067C430.089 31.1811 430.269 28.1346 430.448 25.2674H429.371C427.935 28.6722 426.139 32.3459 423.985 36.2883C421.831 40.2307 419.766 43.546 417.791 46.234L360.16 128.219H429.102V67.7382Z" fill="#9AC2E7"/>
<path d="M147 24.6423V25.3577C161.373 27.1367 169.863 35.6269 171.642 50H172.358C174.137 35.6269 182.627 27.1367 197 25.3577V24.6423C182.627 22.8633 174.137 14.3731 172.358 0H171.642C169.863 14.3731 161.373 22.8633 147 24.6423Z" fill="url(#paint0_linear_12790_116879)"/>
<path d="M312 119.843V120.157C318.324 120.94 322.06 124.676 322.843 131H323.157C323.94 124.676 327.676 120.94 334 120.157V119.843C327.676 119.06 323.94 115.324 323.157 109H322.843C322.06 115.324 318.324 119.06 312 119.843Z" fill="url(#paint1_linear_12790_116879)"/>
<defs>
<linearGradient id="paint0_linear_12790_116879" x1="147" y1="0" x2="201.878" y2="6.09756" gradientUnits="userSpaceOnUse">
<stop stop-color="#FC9C0C"/>
<stop offset="1" stop-color="#EB4971"/>
</linearGradient>
<linearGradient id="paint1_linear_12790_116879" x1="312" y1="109" x2="336.146" y2="111.683" gradientUnits="userSpaceOnUse">
<stop stop-color="#FC9C0C"/>
<stop offset="1" stop-color="#EB4971"/>
</linearGradient>
</defs>
</svg>
