<svg xmlns="http://www.w3.org/2000/svg" viewBox="0 0 24 24">
  <defs>
    <style>
      .a {
        fill: #ea2328;
      }
    </style>
  </defs>
  <path class="a" d="M20.12,14.09a1.45,1.45,0,0,1-1.23,1.5A50.52,50.52,0,0,1,12,16a58.1,58.1,0,0,1-6.89-.38,1.45,1.45,0,0,1-1.23-1.5V9.41a1.57,1.57,0,0,1,1.23-1.5,16.62,16.62,0,0,1,2.15-.14.53.53,0,0,1,.53.56V11.6c1.45,0,2.72-.06,4.2-.06s2.75.06,4.2.06V8.34a.54.54,0,0,1,.53-.57,14.67,14.67,0,0,1,2.15.15A1.55,1.55,0,0,1,20.1,9.41ZM12,0A12,12,0,1,0,24,12,12,12,0,0,0,12,0Z"/>
</svg>
