<svg xmlns="http://www.w3.org/2000/svg" viewBox="0 0 16 16">
  <g>
    <path d="M3.94,6.28H8.66a.22.22,0,0,0,.22-.22.22.22,0,0,0-.22-.22H3.94a.22.22,0,0,0,0,.44Z"/>
    <path d="M3.94,7.62H6.61a.22.22,0,0,0,0-.44H3.94a.22.22,0,1,0,0,.44Z"/>
    <path d="M5.81,8.45H3.94a.22.22,0,0,0,0,.44H5.81a.22.22,0,0,0,0-.44Z"/>
    <path d="M5.53,9.83H3.94a.22.22,0,0,0,0,.44H5.53a.22.22,0,0,0,0-.44Z"/>
    <path d="M13.9,13.65l-1.8-1.8A3.18,3.18,0,0,0,12.73,10a3.22,3.22,0,0,0-2-3V1.62A.63.63,0,0,0,10.06,1H5a.91.91,0,0,0-.64.27L2.09,3.57a.82.82,0,0,0-.22.55v8.19a.62.62,0,0,0,.62.62H8.26a3.26,3.26,0,0,0,1.26.25,3.22,3.22,0,0,0,1.35-.31l1.91,1.91a.79.79,0,1,0,1.12-1.12Zm-9.3-12V3.86H2.43ZM2.49,12.49a.18.18,0,0,1-.18-.18v-8H4.66a.39.39,0,0,0,.39-.39V1.44h5a.18.18,0,0,1,.18.18V6.84a2.92,2.92,0,0,0-.73-.1,3.21,3.21,0,0,0-2,5.75Zm7,.24A2.77,2.77,0,1,1,12.29,10,2.77,2.77,0,0,1,9.51,12.73Zm4.08,1.73a.36.36,0,0,1-.49,0l-1.82-1.82a3.79,3.79,0,0,0,.54-.45L13.59,14A.37.37,0,0,1,13.59,14.46Z"/>
    <path d="M9.52,7.6a2.36,2.36,0,0,0,0,4.72,2.36,2.36,0,0,0,0-4.72Zm0,4.28a1.9,1.9,0,0,1-1.36-.56,1.92,1.92,0,1,1,1.36.56Z"/>
  </g>
</svg>
