<svg xmlns="http://www.w3.org/2000/svg" viewBox="0 0 16 16"><defs><style>.a{fill:#ccc;}</style></defs><path class="a" d="M4.63,10.17c-.25,0-.47-.05-.65-.08a.84.84,0,0,1-.72-.87V6.49A.92.92,0,0,1,4,5.61a10,10,0,0,1,1.26-.08.31.31,0,0,1,.31.33V7.77l1.5,0,5.26-5.26A6.91,6.91,0,0,0,8,1,7,7,0,0,0,1,8a6.91,6.91,0,0,0,1.49,4.31Z"/><path class="a" d="M11.63,5.57l.38,0a.91.91,0,0,1,.72.87V9.22a.84.84,0,0,1-.72.87,28.64,28.64,0,0,1-4,.23c-.36,0-.73,0-1.1,0L3.69,13.51A6.91,6.91,0,0,0,8,15a7,7,0,0,0,7-7,6.91,6.91,0,0,0-1.49-4.31Z"/><path class="a" d="M9.45,7.75l1,0v-1Z"/><polygon class="a" points="14.3 1 5.09 10.21 2.72 12.58 1 14.3 1 15 1.7 15 3.42 13.28 6.42 10.28 8.95 7.75 15 1.7 15 1 14.3 1"/></svg>