<?xml version="1.0" encoding="UTF-8"?>
<svg id="Layer_1" data-name="Layer 1" xmlns="http://www.w3.org/2000/svg" viewBox="0 0 16 16">
  <defs>
    <style>
      .cls-1 {
        fill: #b3cfef;
      }
    </style>
  </defs>
  <path class="cls-1" d="m10.7,5.3c-.43,0-.84-.18-1.14-.48s-.48-.71-.48-1.14V1.52H3.67c-.14,0-.28.06-.37.15-.11.11-.16.25-.16.39v11.89c0,.14.06.28.16.39.09.09.23.15.37.15h8.65c.14,0,.28-.06.37-.15.11-.11.16-.25.16-.39V5.3h-2.16Zm-5.38,5.46c0,.27-.07.48-.22.62-.14.15-.35.22-.61.22-.3,0-.56-.12-.75-.34l-.06-.06.41-.46.07.07c.12.13.21.19.32.19.09,0,.2-.04.2-.26v-1.44h.64v1.45Zm1.12.84c-.35,0-.69-.13-.95-.35l-.06-.06.39-.46.06.05c.2.16.37.23.57.23.05,0,.21,0,.21-.11,0-.05,0-.09-.35-.19-.42-.11-.76-.23-.76-.72,0-.43.34-.72.82-.72.32,0,.6.09.83.28l.07.06-.34.48-.07-.05c-.19-.13-.35-.19-.49-.19-.12,0-.19.03-.19.09,0,.07.01.11.39.2.37.09.74.25.74.71s-.34.74-.86.74Zm2.18.01c-.68,0-1.19-.5-1.19-1.17s.53-1.17,1.2-1.17,1.19.49,1.19,1.16-.53,1.18-1.2,1.18Zm3.47-.04h-.53l-.88-1.16v1.16h-.63v-2.27h.56l.84,1.11v-1.11h.63v2.27Z"/>
  <path class="cls-1" d="m10.7,4.22h1.4l-1.94-1.94v1.4c0,.14.05.28.15.39.11.09.25.15.39.15Z"/>
  <path class="cls-1" d="m8.62,9.88c-.3,0-.54.25-.54.56s.23.57.55.57.54-.23.54-.56-.23-.57-.55-.57Z"/>
</svg>