<?xml version="1.0" encoding="UTF-8"?>
<svg xmlns="http://www.w3.org/2000/svg" xmlns:xlink="http://www.w3.org/1999/xlink" width="100px" height="100px" viewBox="0 0 100 100" version="1.1">
<g id="surface1">
<path style=" stroke:none;fill-rule:nonzero;fill:rgb(70.196078%,81.176471%,93.72549%);fill-opacity:1;" d="M 84 6.25 L 16 6.25 C 10.613281 6.25 6.25 10.613281 6.25 16 L 6.25 84 C 6.25 89.386719 10.613281 93.75 16 93.75 L 84 93.75 C 89.386719 93.75 93.75 89.386719 93.75 84 L 93.75 16 C 93.75 10.613281 89.386719 6.25 84 6.25 Z M 24.3125 68.3125 L 17 68.3125 L 17 61 L 24.3125 61 Z M 24.3125 53.625 L 17 53.625 L 17 46.375 L 24.3125 46.375 Z M 24.3125 39 L 17 39 L 17 31.6875 L 24.3125 31.6875 Z M 83 68.3125 L 31.6875 68.3125 L 31.6875 61 L 83 61 Z M 83 53.625 L 31.6875 53.625 L 31.6875 46.375 L 83 46.375 Z M 83 39 L 31.6875 39 L 31.6875 31.6875 L 83 31.6875 Z M 83 39 "/>
</g>
</svg>
