<?xml version="1.0" encoding="utf-8"?>
<!-- Generator: Adobe Illustrator 27.3.1, SVG Export Plug-In . SVG Version: 6.00 Build 0)  -->
<svg version="1.1" id="Layer_1" xmlns="http://www.w3.org/2000/svg" xmlns:xlink="http://www.w3.org/1999/xlink" x="0px" y="0px"
	 viewBox="0 0 16 16" style="enable-background:new 0 0 16 16;" xml:space="preserve">
<style type="text/css">
	.st0{fill:#B3CFEF;}
</style>
<path class="st0" d="M12.9,9.6h-0.5V8c0-0.1-0.1-0.3-0.2-0.4c-0.1-0.1-0.2-0.2-0.4-0.2H8.5V6.4h0.5c0.3,0,0.6-0.1,0.8-0.3
	c0.2-0.2,0.3-0.5,0.3-0.8V3.1c0-0.3-0.1-0.6-0.3-0.8C9.7,2.1,9.4,2,9.1,2H6.9C6.6,2,6.3,2.1,6.1,2.3C5.9,2.5,5.8,2.8,5.8,3.1v2.2
	c0,0.3,0.1,0.6,0.3,0.8c0.2,0.2,0.5,0.3,0.8,0.3h0.5v1.1l-3.3,0C4,7.5,3.9,7.5,3.8,7.6C3.7,7.7,3.6,7.9,3.6,8v1.6H3.1
	c-0.3,0-0.6,0.1-0.8,0.3S2,10.4,2,10.7v2.2c0,0.3,0.1,0.6,0.3,0.8S2.8,14,3.1,14h2.2c0.3,0,0.6-0.1,0.8-0.3c0.2-0.2,0.3-0.5,0.3-0.8
	v-2.2c0-0.3-0.1-0.6-0.3-0.8S5.6,9.6,5.3,9.6H4.7V8.5h6.5v1.1l-0.5,0c-0.3,0-0.6,0.1-0.8,0.3s-0.3,0.5-0.3,0.8v2.2
	c0,0.3,0.1,0.6,0.3,0.8s0.5,0.3,0.8,0.3h2.2c0.3,0,0.6-0.1,0.8-0.3c0.2-0.2,0.3-0.5,0.3-0.8v-2.2c0-0.3-0.1-0.6-0.3-0.8
	C13.5,9.8,13.2,9.6,12.9,9.6L12.9,9.6z M6.9,3.1h2.2l0,2.2H6.9L6.9,3.1z M5.3,12.9H3.1v-2.2h2.2V12.9z M10.7,12.9v-2.2h2.2v2.2H10.7
	z"/>
</svg>
