<svg xmlns="http://www.w3.org/2000/svg" viewBox="0 0 16 16">
  <path d="M14.47,6.12h-.6V5.47A.52.52,0,0,0,13.35,5h-.66v-.7a.52.52,0,0,0-.52-.53H5.51L4.6,2.66a.21.21,0,0,0-.17-.08H1.22A.22.22,0,0,0,1,2.8v7.71a.52.52,0,0,0,.52.52h.65v.69a.53.53,0,0,0,.53.53h.6v.65a.52.52,0,0,0,.53.52H14.48a.52.52,0,0,0,.52-.53V6.64A.52.52,0,0,0,14.47,6.12ZM1.44,3H4.33l.6.71H1.44Zm.08,7.63a.14.14,0,0,1-.13-.11,0,0,0,0,1,0,0V4.26a.14.14,0,0,1,.14-.14H12.17a.14.14,0,0,1,.14.14v6.25a.15.15,0,0,1-.14.14H1.52Zm1,1.07V11h9.61a.52.52,0,0,0,.52-.52V5.32h.66a.14.14,0,0,1,.13.14v6.25a.13.13,0,0,1-.13.14H2.7A.14.14,0,0,1,2.56,11.72Zm12,1.17a.14.14,0,0,1-.14.14H3.83a.14.14,0,0,1-.14-.14v-.64h9.66a.52.52,0,0,0,.52-.53V6.51h.6a.13.13,0,0,1,.14.13Z"/>
</svg>
